<mxfile host="app.diagrams.net" modified="2020-12-10T08:44:12.714Z" agent="5.0 (Windows NT 10.0; Win64; x64) AppleWebKit/537.36 (KHTML, like Gecko) Chrome/87.0.4280.88 Safari/537.36" etag="CnURTDBy2lvVlCkYGpEP" version="14.0.0" type="github">
  <diagram id="R2lEEEUBdFMjLlhIrx00" name="Page-1">
    <mxGraphModel dx="1422" dy="761" grid="1" gridSize="10" guides="1" tooltips="1" connect="1" arrows="1" fold="1" page="1" pageScale="1" pageWidth="1100" pageHeight="850" math="0" shadow="0" extFonts="Permanent Marker^https://fonts.googleapis.com/css?family=Permanent+Marker">
      <root>
        <mxCell id="0" />
        <mxCell id="1" parent="0" />
        <mxCell id="WTn2_7kbj4TnZLWo-PTT-1" value="Movie" style="shape=table;startSize=30;container=1;collapsible=1;childLayout=tableLayout;fixedRows=1;rowLines=0;fontStyle=1;align=center;resizeLast=1;" vertex="1" parent="1">
          <mxGeometry x="70" y="170" width="180" height="220" as="geometry" />
        </mxCell>
        <mxCell id="WTn2_7kbj4TnZLWo-PTT-2" value="" style="shape=partialRectangle;collapsible=0;dropTarget=0;pointerEvents=0;fillColor=none;top=0;left=0;bottom=1;right=0;points=[[0,0.5],[1,0.5]];portConstraint=eastwest;" vertex="1" parent="WTn2_7kbj4TnZLWo-PTT-1">
          <mxGeometry y="30" width="180" height="30" as="geometry" />
        </mxCell>
        <mxCell id="WTn2_7kbj4TnZLWo-PTT-3" value="PK" style="shape=partialRectangle;connectable=0;fillColor=none;top=0;left=0;bottom=0;right=0;fontStyle=1;overflow=hidden;" vertex="1" parent="WTn2_7kbj4TnZLWo-PTT-2">
          <mxGeometry width="30" height="30" as="geometry" />
        </mxCell>
        <mxCell id="WTn2_7kbj4TnZLWo-PTT-4" value="movieid" style="shape=partialRectangle;connectable=0;fillColor=none;top=0;left=0;bottom=0;right=0;align=left;spacingLeft=6;fontStyle=5;overflow=hidden;" vertex="1" parent="WTn2_7kbj4TnZLWo-PTT-2">
          <mxGeometry x="30" width="150" height="30" as="geometry" />
        </mxCell>
        <mxCell id="WTn2_7kbj4TnZLWo-PTT-5" value="" style="shape=partialRectangle;collapsible=0;dropTarget=0;pointerEvents=0;fillColor=none;top=0;left=0;bottom=0;right=0;points=[[0,0.5],[1,0.5]];portConstraint=eastwest;" vertex="1" parent="WTn2_7kbj4TnZLWo-PTT-1">
          <mxGeometry y="60" width="180" height="30" as="geometry" />
        </mxCell>
        <mxCell id="WTn2_7kbj4TnZLWo-PTT-6" value="" style="shape=partialRectangle;connectable=0;fillColor=none;top=0;left=0;bottom=0;right=0;editable=1;overflow=hidden;" vertex="1" parent="WTn2_7kbj4TnZLWo-PTT-5">
          <mxGeometry width="30" height="30" as="geometry" />
        </mxCell>
        <mxCell id="WTn2_7kbj4TnZLWo-PTT-7" value="Row 1" style="shape=partialRectangle;connectable=0;fillColor=none;top=0;left=0;bottom=0;right=0;align=left;spacingLeft=6;overflow=hidden;" vertex="1" parent="WTn2_7kbj4TnZLWo-PTT-5">
          <mxGeometry x="30" width="150" height="30" as="geometry" />
        </mxCell>
        <mxCell id="WTn2_7kbj4TnZLWo-PTT-8" value="" style="shape=partialRectangle;collapsible=0;dropTarget=0;pointerEvents=0;fillColor=none;top=0;left=0;bottom=0;right=0;points=[[0,0.5],[1,0.5]];portConstraint=eastwest;" vertex="1" parent="WTn2_7kbj4TnZLWo-PTT-1">
          <mxGeometry y="90" width="180" height="30" as="geometry" />
        </mxCell>
        <mxCell id="WTn2_7kbj4TnZLWo-PTT-9" value="" style="shape=partialRectangle;connectable=0;fillColor=none;top=0;left=0;bottom=0;right=0;editable=1;overflow=hidden;" vertex="1" parent="WTn2_7kbj4TnZLWo-PTT-8">
          <mxGeometry width="30" height="30" as="geometry" />
        </mxCell>
        <mxCell id="WTn2_7kbj4TnZLWo-PTT-10" value="Row 2" style="shape=partialRectangle;connectable=0;fillColor=none;top=0;left=0;bottom=0;right=0;align=left;spacingLeft=6;overflow=hidden;" vertex="1" parent="WTn2_7kbj4TnZLWo-PTT-8">
          <mxGeometry x="30" width="150" height="30" as="geometry" />
        </mxCell>
        <mxCell id="WTn2_7kbj4TnZLWo-PTT-11" value="" style="shape=partialRectangle;collapsible=0;dropTarget=0;pointerEvents=0;fillColor=none;top=0;left=0;bottom=0;right=0;points=[[0,0.5],[1,0.5]];portConstraint=eastwest;" vertex="1" parent="WTn2_7kbj4TnZLWo-PTT-1">
          <mxGeometry y="120" width="180" height="30" as="geometry" />
        </mxCell>
        <mxCell id="WTn2_7kbj4TnZLWo-PTT-12" value="" style="shape=partialRectangle;connectable=0;fillColor=none;top=0;left=0;bottom=0;right=0;editable=1;overflow=hidden;" vertex="1" parent="WTn2_7kbj4TnZLWo-PTT-11">
          <mxGeometry width="30" height="30" as="geometry" />
        </mxCell>
        <mxCell id="WTn2_7kbj4TnZLWo-PTT-13" value="Row 3" style="shape=partialRectangle;connectable=0;fillColor=none;top=0;left=0;bottom=0;right=0;align=left;spacingLeft=6;overflow=hidden;" vertex="1" parent="WTn2_7kbj4TnZLWo-PTT-11">
          <mxGeometry x="30" width="150" height="30" as="geometry" />
        </mxCell>
        <mxCell id="WTn2_7kbj4TnZLWo-PTT-56" value="" style="shape=partialRectangle;collapsible=0;dropTarget=0;pointerEvents=0;fillColor=none;top=0;left=0;bottom=0;right=0;points=[[0,0.5],[1,0.5]];portConstraint=eastwest;" vertex="1" parent="WTn2_7kbj4TnZLWo-PTT-1">
          <mxGeometry y="150" width="180" height="30" as="geometry" />
        </mxCell>
        <mxCell id="WTn2_7kbj4TnZLWo-PTT-57" value="" style="shape=partialRectangle;connectable=0;fillColor=none;top=0;left=0;bottom=0;right=0;editable=1;overflow=hidden;" vertex="1" parent="WTn2_7kbj4TnZLWo-PTT-56">
          <mxGeometry width="30" height="30" as="geometry" />
        </mxCell>
        <mxCell id="WTn2_7kbj4TnZLWo-PTT-58" value="Row 3" style="shape=partialRectangle;connectable=0;fillColor=none;top=0;left=0;bottom=0;right=0;align=left;spacingLeft=6;overflow=hidden;" vertex="1" parent="WTn2_7kbj4TnZLWo-PTT-56">
          <mxGeometry x="30" width="150" height="30" as="geometry" />
        </mxCell>
        <mxCell id="WTn2_7kbj4TnZLWo-PTT-60" value="" style="shape=partialRectangle;collapsible=0;dropTarget=0;pointerEvents=0;fillColor=none;top=0;left=0;bottom=0;right=0;points=[[0,0.5],[1,0.5]];portConstraint=eastwest;" vertex="1" parent="WTn2_7kbj4TnZLWo-PTT-1">
          <mxGeometry y="180" width="180" height="30" as="geometry" />
        </mxCell>
        <mxCell id="WTn2_7kbj4TnZLWo-PTT-61" value="FK" style="shape=partialRectangle;connectable=0;fillColor=none;top=0;left=0;bottom=0;right=0;editable=1;overflow=hidden;" vertex="1" parent="WTn2_7kbj4TnZLWo-PTT-60">
          <mxGeometry width="30" height="30" as="geometry" />
        </mxCell>
        <mxCell id="WTn2_7kbj4TnZLWo-PTT-62" value="Row 3" style="shape=partialRectangle;connectable=0;fillColor=none;top=0;left=0;bottom=0;right=0;align=left;spacingLeft=6;overflow=hidden;" vertex="1" parent="WTn2_7kbj4TnZLWo-PTT-60">
          <mxGeometry x="30" width="150" height="30" as="geometry" />
        </mxCell>
        <mxCell id="WTn2_7kbj4TnZLWo-PTT-27" value="User" style="shape=table;startSize=30;container=1;collapsible=1;childLayout=tableLayout;fixedRows=1;rowLines=0;fontStyle=1;align=center;resizeLast=1;" vertex="1" parent="1">
          <mxGeometry x="800" y="170" width="180" height="190" as="geometry" />
        </mxCell>
        <mxCell id="WTn2_7kbj4TnZLWo-PTT-28" value="" style="shape=partialRectangle;collapsible=0;dropTarget=0;pointerEvents=0;fillColor=none;top=0;left=0;bottom=1;right=0;points=[[0,0.5],[1,0.5]];portConstraint=eastwest;" vertex="1" parent="WTn2_7kbj4TnZLWo-PTT-27">
          <mxGeometry y="30" width="180" height="30" as="geometry" />
        </mxCell>
        <mxCell id="WTn2_7kbj4TnZLWo-PTT-29" value="PK" style="shape=partialRectangle;connectable=0;fillColor=none;top=0;left=0;bottom=0;right=0;fontStyle=1;overflow=hidden;" vertex="1" parent="WTn2_7kbj4TnZLWo-PTT-28">
          <mxGeometry width="30" height="30" as="geometry" />
        </mxCell>
        <mxCell id="WTn2_7kbj4TnZLWo-PTT-30" value="userid" style="shape=partialRectangle;connectable=0;fillColor=none;top=0;left=0;bottom=0;right=0;align=left;spacingLeft=6;fontStyle=5;overflow=hidden;" vertex="1" parent="WTn2_7kbj4TnZLWo-PTT-28">
          <mxGeometry x="30" width="150" height="30" as="geometry" />
        </mxCell>
        <mxCell id="WTn2_7kbj4TnZLWo-PTT-31" value="" style="shape=partialRectangle;collapsible=0;dropTarget=0;pointerEvents=0;fillColor=none;top=0;left=0;bottom=0;right=0;points=[[0,0.5],[1,0.5]];portConstraint=eastwest;" vertex="1" parent="WTn2_7kbj4TnZLWo-PTT-27">
          <mxGeometry y="60" width="180" height="30" as="geometry" />
        </mxCell>
        <mxCell id="WTn2_7kbj4TnZLWo-PTT-32" value="" style="shape=partialRectangle;connectable=0;fillColor=none;top=0;left=0;bottom=0;right=0;editable=1;overflow=hidden;" vertex="1" parent="WTn2_7kbj4TnZLWo-PTT-31">
          <mxGeometry width="30" height="30" as="geometry" />
        </mxCell>
        <mxCell id="WTn2_7kbj4TnZLWo-PTT-33" value="Username" style="shape=partialRectangle;connectable=0;fillColor=none;top=0;left=0;bottom=0;right=0;align=left;spacingLeft=6;overflow=hidden;fontStyle=1" vertex="1" parent="WTn2_7kbj4TnZLWo-PTT-31">
          <mxGeometry x="30" width="150" height="30" as="geometry" />
        </mxCell>
        <mxCell id="WTn2_7kbj4TnZLWo-PTT-34" value="" style="shape=partialRectangle;collapsible=0;dropTarget=0;pointerEvents=0;fillColor=none;top=0;left=0;bottom=0;right=0;points=[[0,0.5],[1,0.5]];portConstraint=eastwest;" vertex="1" parent="WTn2_7kbj4TnZLWo-PTT-27">
          <mxGeometry y="90" width="180" height="30" as="geometry" />
        </mxCell>
        <mxCell id="WTn2_7kbj4TnZLWo-PTT-35" value="" style="shape=partialRectangle;connectable=0;fillColor=none;top=0;left=0;bottom=0;right=0;editable=1;overflow=hidden;" vertex="1" parent="WTn2_7kbj4TnZLWo-PTT-34">
          <mxGeometry width="30" height="30" as="geometry" />
        </mxCell>
        <mxCell id="WTn2_7kbj4TnZLWo-PTT-36" value="Password" style="shape=partialRectangle;connectable=0;fillColor=none;top=0;left=0;bottom=0;right=0;align=left;spacingLeft=6;overflow=hidden;fontStyle=1" vertex="1" parent="WTn2_7kbj4TnZLWo-PTT-34">
          <mxGeometry x="30" width="150" height="30" as="geometry" />
        </mxCell>
        <mxCell id="WTn2_7kbj4TnZLWo-PTT-37" value="" style="shape=partialRectangle;collapsible=0;dropTarget=0;pointerEvents=0;fillColor=none;top=0;left=0;bottom=0;right=0;points=[[0,0.5],[1,0.5]];portConstraint=eastwest;" vertex="1" parent="WTn2_7kbj4TnZLWo-PTT-27">
          <mxGeometry y="120" width="180" height="30" as="geometry" />
        </mxCell>
        <mxCell id="WTn2_7kbj4TnZLWo-PTT-38" value="" style="shape=partialRectangle;connectable=0;fillColor=none;top=0;left=0;bottom=0;right=0;editable=1;overflow=hidden;" vertex="1" parent="WTn2_7kbj4TnZLWo-PTT-37">
          <mxGeometry width="30" height="30" as="geometry" />
        </mxCell>
        <mxCell id="WTn2_7kbj4TnZLWo-PTT-39" value="DateCreated" style="shape=partialRectangle;connectable=0;fillColor=none;top=0;left=0;bottom=0;right=0;align=left;spacingLeft=6;overflow=hidden;fontStyle=1" vertex="1" parent="WTn2_7kbj4TnZLWo-PTT-37">
          <mxGeometry x="30" width="150" height="30" as="geometry" />
        </mxCell>
        <mxCell id="WTn2_7kbj4TnZLWo-PTT-40" value="Table" style="shape=table;startSize=30;container=1;collapsible=1;childLayout=tableLayout;fixedRows=1;rowLines=0;fontStyle=1;align=center;resizeLast=1;" vertex="1" parent="1">
          <mxGeometry x="70" y="540" width="180" height="160" as="geometry" />
        </mxCell>
        <mxCell id="WTn2_7kbj4TnZLWo-PTT-41" value="" style="shape=partialRectangle;collapsible=0;dropTarget=0;pointerEvents=0;fillColor=none;top=0;left=0;bottom=1;right=0;points=[[0,0.5],[1,0.5]];portConstraint=eastwest;" vertex="1" parent="WTn2_7kbj4TnZLWo-PTT-40">
          <mxGeometry y="30" width="180" height="30" as="geometry" />
        </mxCell>
        <mxCell id="WTn2_7kbj4TnZLWo-PTT-42" value="PK" style="shape=partialRectangle;connectable=0;fillColor=none;top=0;left=0;bottom=0;right=0;fontStyle=1;overflow=hidden;" vertex="1" parent="WTn2_7kbj4TnZLWo-PTT-41">
          <mxGeometry width="30" height="30" as="geometry" />
        </mxCell>
        <mxCell id="WTn2_7kbj4TnZLWo-PTT-43" value="UniqueID" style="shape=partialRectangle;connectable=0;fillColor=none;top=0;left=0;bottom=0;right=0;align=left;spacingLeft=6;fontStyle=5;overflow=hidden;" vertex="1" parent="WTn2_7kbj4TnZLWo-PTT-41">
          <mxGeometry x="30" width="150" height="30" as="geometry" />
        </mxCell>
        <mxCell id="WTn2_7kbj4TnZLWo-PTT-44" value="" style="shape=partialRectangle;collapsible=0;dropTarget=0;pointerEvents=0;fillColor=none;top=0;left=0;bottom=0;right=0;points=[[0,0.5],[1,0.5]];portConstraint=eastwest;" vertex="1" parent="WTn2_7kbj4TnZLWo-PTT-40">
          <mxGeometry y="60" width="180" height="30" as="geometry" />
        </mxCell>
        <mxCell id="WTn2_7kbj4TnZLWo-PTT-45" value="" style="shape=partialRectangle;connectable=0;fillColor=none;top=0;left=0;bottom=0;right=0;editable=1;overflow=hidden;" vertex="1" parent="WTn2_7kbj4TnZLWo-PTT-44">
          <mxGeometry width="30" height="30" as="geometry" />
        </mxCell>
        <mxCell id="WTn2_7kbj4TnZLWo-PTT-46" value="Row 1" style="shape=partialRectangle;connectable=0;fillColor=none;top=0;left=0;bottom=0;right=0;align=left;spacingLeft=6;overflow=hidden;" vertex="1" parent="WTn2_7kbj4TnZLWo-PTT-44">
          <mxGeometry x="30" width="150" height="30" as="geometry" />
        </mxCell>
        <mxCell id="WTn2_7kbj4TnZLWo-PTT-47" value="" style="shape=partialRectangle;collapsible=0;dropTarget=0;pointerEvents=0;fillColor=none;top=0;left=0;bottom=0;right=0;points=[[0,0.5],[1,0.5]];portConstraint=eastwest;" vertex="1" parent="WTn2_7kbj4TnZLWo-PTT-40">
          <mxGeometry y="90" width="180" height="30" as="geometry" />
        </mxCell>
        <mxCell id="WTn2_7kbj4TnZLWo-PTT-48" value="" style="shape=partialRectangle;connectable=0;fillColor=none;top=0;left=0;bottom=0;right=0;editable=1;overflow=hidden;" vertex="1" parent="WTn2_7kbj4TnZLWo-PTT-47">
          <mxGeometry width="30" height="30" as="geometry" />
        </mxCell>
        <mxCell id="WTn2_7kbj4TnZLWo-PTT-49" value="Row 2" style="shape=partialRectangle;connectable=0;fillColor=none;top=0;left=0;bottom=0;right=0;align=left;spacingLeft=6;overflow=hidden;" vertex="1" parent="WTn2_7kbj4TnZLWo-PTT-47">
          <mxGeometry x="30" width="150" height="30" as="geometry" />
        </mxCell>
        <mxCell id="WTn2_7kbj4TnZLWo-PTT-50" value="" style="shape=partialRectangle;collapsible=0;dropTarget=0;pointerEvents=0;fillColor=none;top=0;left=0;bottom=0;right=0;points=[[0,0.5],[1,0.5]];portConstraint=eastwest;" vertex="1" parent="WTn2_7kbj4TnZLWo-PTT-40">
          <mxGeometry y="120" width="180" height="30" as="geometry" />
        </mxCell>
        <mxCell id="WTn2_7kbj4TnZLWo-PTT-51" value="" style="shape=partialRectangle;connectable=0;fillColor=none;top=0;left=0;bottom=0;right=0;editable=1;overflow=hidden;" vertex="1" parent="WTn2_7kbj4TnZLWo-PTT-50">
          <mxGeometry width="30" height="30" as="geometry" />
        </mxCell>
        <mxCell id="WTn2_7kbj4TnZLWo-PTT-52" value="Row 3" style="shape=partialRectangle;connectable=0;fillColor=none;top=0;left=0;bottom=0;right=0;align=left;spacingLeft=6;overflow=hidden;" vertex="1" parent="WTn2_7kbj4TnZLWo-PTT-50">
          <mxGeometry x="30" width="150" height="30" as="geometry" />
        </mxCell>
        <mxCell id="WTn2_7kbj4TnZLWo-PTT-66" value="UserMovie" style="shape=table;startSize=30;container=1;collapsible=1;childLayout=tableLayout;fixedRows=1;rowLines=0;fontStyle=1;align=center;resizeLast=1;rounded=1;" vertex="1" parent="1">
          <mxGeometry x="450" y="170" width="180" height="160" as="geometry" />
        </mxCell>
        <mxCell id="WTn2_7kbj4TnZLWo-PTT-67" value="" style="shape=partialRectangle;collapsible=0;dropTarget=0;pointerEvents=0;fillColor=none;top=0;left=0;bottom=0;right=0;points=[[0,0.5],[1,0.5]];portConstraint=eastwest;" vertex="1" parent="WTn2_7kbj4TnZLWo-PTT-66">
          <mxGeometry y="30" width="180" height="30" as="geometry" />
        </mxCell>
        <mxCell id="WTn2_7kbj4TnZLWo-PTT-68" value="PK,FK1" style="shape=partialRectangle;connectable=0;fillColor=none;top=0;left=0;bottom=0;right=0;fontStyle=1;overflow=hidden;" vertex="1" parent="WTn2_7kbj4TnZLWo-PTT-67">
          <mxGeometry width="60" height="30" as="geometry" />
        </mxCell>
        <mxCell id="WTn2_7kbj4TnZLWo-PTT-69" value="movieid" style="shape=partialRectangle;connectable=0;fillColor=none;top=0;left=0;bottom=0;right=0;align=left;spacingLeft=6;fontStyle=5;overflow=hidden;" vertex="1" parent="WTn2_7kbj4TnZLWo-PTT-67">
          <mxGeometry x="60" width="120" height="30" as="geometry" />
        </mxCell>
        <mxCell id="WTn2_7kbj4TnZLWo-PTT-70" value="" style="shape=partialRectangle;collapsible=0;dropTarget=0;pointerEvents=0;fillColor=none;top=0;left=0;bottom=1;right=0;points=[[0,0.5],[1,0.5]];portConstraint=eastwest;" vertex="1" parent="WTn2_7kbj4TnZLWo-PTT-66">
          <mxGeometry y="60" width="180" height="30" as="geometry" />
        </mxCell>
        <mxCell id="WTn2_7kbj4TnZLWo-PTT-71" value="PK,FK2" style="shape=partialRectangle;connectable=0;fillColor=none;top=0;left=0;bottom=0;right=0;fontStyle=1;overflow=hidden;" vertex="1" parent="WTn2_7kbj4TnZLWo-PTT-70">
          <mxGeometry width="60" height="30" as="geometry" />
        </mxCell>
        <mxCell id="WTn2_7kbj4TnZLWo-PTT-72" value="userid" style="shape=partialRectangle;connectable=0;fillColor=none;top=0;left=0;bottom=0;right=0;align=left;spacingLeft=6;fontStyle=5;overflow=hidden;" vertex="1" parent="WTn2_7kbj4TnZLWo-PTT-70">
          <mxGeometry x="60" width="120" height="30" as="geometry" />
        </mxCell>
        <mxCell id="WTn2_7kbj4TnZLWo-PTT-73" value="" style="shape=partialRectangle;collapsible=0;dropTarget=0;pointerEvents=0;fillColor=none;top=0;left=0;bottom=0;right=0;points=[[0,0.5],[1,0.5]];portConstraint=eastwest;" vertex="1" parent="WTn2_7kbj4TnZLWo-PTT-66">
          <mxGeometry y="90" width="180" height="30" as="geometry" />
        </mxCell>
        <mxCell id="WTn2_7kbj4TnZLWo-PTT-74" value="" style="shape=partialRectangle;connectable=0;fillColor=none;top=0;left=0;bottom=0;right=0;editable=1;overflow=hidden;" vertex="1" parent="WTn2_7kbj4TnZLWo-PTT-73">
          <mxGeometry width="60" height="30" as="geometry" />
        </mxCell>
        <mxCell id="WTn2_7kbj4TnZLWo-PTT-75" value="Row 3" style="shape=partialRectangle;connectable=0;fillColor=none;top=0;left=0;bottom=0;right=0;align=left;spacingLeft=6;overflow=hidden;" vertex="1" parent="WTn2_7kbj4TnZLWo-PTT-73">
          <mxGeometry x="60" width="120" height="30" as="geometry" />
        </mxCell>
        <mxCell id="WTn2_7kbj4TnZLWo-PTT-76" value="" style="shape=partialRectangle;collapsible=0;dropTarget=0;pointerEvents=0;fillColor=none;top=0;left=0;bottom=0;right=0;points=[[0,0.5],[1,0.5]];portConstraint=eastwest;" vertex="1" parent="WTn2_7kbj4TnZLWo-PTT-66">
          <mxGeometry y="120" width="180" height="30" as="geometry" />
        </mxCell>
        <mxCell id="WTn2_7kbj4TnZLWo-PTT-77" value="" style="shape=partialRectangle;connectable=0;fillColor=none;top=0;left=0;bottom=0;right=0;editable=1;overflow=hidden;" vertex="1" parent="WTn2_7kbj4TnZLWo-PTT-76">
          <mxGeometry width="60" height="30" as="geometry" />
        </mxCell>
        <mxCell id="WTn2_7kbj4TnZLWo-PTT-78" value="Row 4" style="shape=partialRectangle;connectable=0;fillColor=none;top=0;left=0;bottom=0;right=0;align=left;spacingLeft=6;overflow=hidden;" vertex="1" parent="WTn2_7kbj4TnZLWo-PTT-76">
          <mxGeometry x="60" width="120" height="30" as="geometry" />
        </mxCell>
        <mxCell id="WTn2_7kbj4TnZLWo-PTT-80" value="" style="edgeStyle=entityRelationEdgeStyle;fontSize=12;html=1;endArrow=ERmany;endSize=17;exitX=1;exitY=0.5;exitDx=0;exitDy=0;entryX=0;entryY=0.5;entryDx=0;entryDy=0;endFill=0;" edge="1" parent="1" source="WTn2_7kbj4TnZLWo-PTT-2" target="WTn2_7kbj4TnZLWo-PTT-67">
          <mxGeometry width="100" height="100" relative="1" as="geometry">
            <mxPoint x="560" y="630" as="sourcePoint" />
            <mxPoint x="560" y="410" as="targetPoint" />
          </mxGeometry>
        </mxCell>
        <mxCell id="WTn2_7kbj4TnZLWo-PTT-81" value="" style="edgeStyle=entityRelationEdgeStyle;fontSize=12;html=1;endArrow=ERoneToMany;exitX=0;exitY=0.5;exitDx=0;exitDy=0;entryX=1;entryY=0.5;entryDx=0;entryDy=0;endSize=17;" edge="1" parent="1" source="WTn2_7kbj4TnZLWo-PTT-28" target="WTn2_7kbj4TnZLWo-PTT-70">
          <mxGeometry width="100" height="100" relative="1" as="geometry">
            <mxPoint x="770" y="540" as="sourcePoint" />
            <mxPoint x="870" y="440" as="targetPoint" />
          </mxGeometry>
        </mxCell>
        <mxCell id="WTn2_7kbj4TnZLWo-PTT-82" value="Movie" style="swimlane;childLayout=stackLayout;horizontal=1;startSize=30;horizontalStack=0;rounded=1;fontSize=14;fontStyle=0;strokeWidth=2;resizeParent=0;resizeLast=1;shadow=0;dashed=0;align=center;" vertex="1" parent="1">
          <mxGeometry x="730" y="510" width="160" height="120" as="geometry" />
        </mxCell>
        <mxCell id="WTn2_7kbj4TnZLWo-PTT-83" value="+Name&#xa;+Language&#xa;+Generes" style="align=left;strokeColor=none;fillColor=none;spacingLeft=4;fontSize=12;verticalAlign=top;resizable=0;rotatable=0;part=1;" vertex="1" parent="WTn2_7kbj4TnZLWo-PTT-82">
          <mxGeometry y="30" width="160" height="90" as="geometry" />
        </mxCell>
        <mxCell id="WTn2_7kbj4TnZLWo-PTT-88" value="Genres" style="swimlane;fontStyle=0;childLayout=stackLayout;horizontal=1;startSize=26;horizontalStack=0;resizeParent=1;resizeParentMax=0;resizeLast=0;collapsible=1;marginBottom=0;align=center;fontSize=14;rounded=1;" vertex="1" parent="1">
          <mxGeometry x="460" y="512" width="160" height="146" as="geometry" />
        </mxCell>
        <mxCell id="WTn2_7kbj4TnZLWo-PTT-89" value="Drama" style="text;strokeColor=none;fillColor=none;spacingLeft=4;spacingRight=4;overflow=hidden;rotatable=0;points=[[0,0.5],[1,0.5]];portConstraint=eastwest;fontSize=12;" vertex="1" parent="WTn2_7kbj4TnZLWo-PTT-88">
          <mxGeometry y="26" width="160" height="30" as="geometry" />
        </mxCell>
        <mxCell id="WTn2_7kbj4TnZLWo-PTT-90" value="Comedy" style="text;strokeColor=none;fillColor=none;spacingLeft=4;spacingRight=4;overflow=hidden;rotatable=0;points=[[0,0.5],[1,0.5]];portConstraint=eastwest;fontSize=12;" vertex="1" parent="WTn2_7kbj4TnZLWo-PTT-88">
          <mxGeometry y="56" width="160" height="30" as="geometry" />
        </mxCell>
        <mxCell id="WTn2_7kbj4TnZLWo-PTT-91" value="Science Fiction" style="text;strokeColor=none;fillColor=none;spacingLeft=4;spacingRight=4;overflow=hidden;rotatable=0;points=[[0,0.5],[1,0.5]];portConstraint=eastwest;fontSize=12;" vertex="1" parent="WTn2_7kbj4TnZLWo-PTT-88">
          <mxGeometry y="86" width="160" height="30" as="geometry" />
        </mxCell>
        <mxCell id="WTn2_7kbj4TnZLWo-PTT-92" value="Thriller" style="text;strokeColor=none;fillColor=none;spacingLeft=4;spacingRight=4;overflow=hidden;rotatable=0;points=[[0,0.5],[1,0.5]];portConstraint=eastwest;fontSize=12;" vertex="1" parent="WTn2_7kbj4TnZLWo-PTT-88">
          <mxGeometry y="116" width="160" height="30" as="geometry" />
        </mxCell>
      </root>
    </mxGraphModel>
  </diagram>
</mxfile>
